<?xml version="1.0" standalone="no"?>
<!DOCTYPE svg PUBLIC "-//W3C//DTD SVG 20010904//EN"
 "http://www.w3.org/TR/2001/REC-SVG-20010904/DTD/svg10.dtd">
<svg version="1.0" xmlns="http://www.w3.org/2000/svg"
 width="1024.000000pt" height="1024.000000pt" viewBox="0 0 1024.000000 1024.000000"
 preserveAspectRatio="xMidYMid meet">

<g transform="translate(0.000000,1024.000000) scale(0.100000,-0.100000)"
fill="#000000" stroke="none">
<path d="M5065 9513 c-85 -4 -397 -39 -480 -54 -111 -20 -389 -90 -520 -130
-658 -204 -1255 -551 -1724 -1003 -356 -344 -573 -614 -798 -995 -196 -332
-372 -764 -482 -1181 -72 -272 -111 -551 -132 -928 -24 -415 26 -956 122
-1322 122 -468 296 -899 524 -1295 377 -655 939 -1187 1645 -1558 510 -268
1015 -421 1625 -494 207 -24 724 -24 940 1 357 41 607 94 900 190 863 285
1595 800 2122 1492 277 364 523 846 677 1324 165 509 230 961 221 1525 -8 479
-79 906 -222 1335 -373 1118 -1047 1960 -2013 2515 -750 431 -1526 617 -2405
578z m728 -268 l47 -6 61 -122 61 -121 47 50 c26 27 69 70 97 96 l49 47 68
-11 c37 -6 67 -16 67 -22 -1 -45 -58 -567 -62 -572 -3 -3 -43 0 -88 7 l-82 13
7 120 7 119 -33 -27 c-18 -15 -41 -38 -51 -51 -10 -14 -32 -34 -48 -45 l-29
-21 -49 97 -49 98 -21 -65 c-12 -35 -28 -90 -37 -122 -15 -52 -20 -58 -38 -54
-12 3 -48 9 -79 12 -50 6 -58 10 -58 28 0 11 25 141 55 288 30 147 55 270 55
274 0 4 12 4 28 1 15 -2 48 -8 75 -11z m-1283 -67 c0 -41 -116 -637 -125 -646
-8 -8 -51 36 -128 130 -39 48 -72 86 -73 85 -2 -1 -12 -48 -24 -102 -28 -138
-41 -185 -50 -185 -20 0 -445 499 -434 510 11 10 144 50 167 50 8 0 43 -31 77
-70 34 -38 66 -70 71 -70 5 0 9 17 10 38 1 20 6 66 13 101 l11 65 60 18 c42
12 61 14 66 6 26 -42 123 -167 127 -164 2 3 13 49 23 103 11 54 24 102 29 107
8 8 119 32 163 35 9 0 17 -5 17 -11z m919 -233 c17 -11 31 -23 31 -27 0 -3
-15 -15 -33 -27 -18 -11 -43 -34 -56 -51 l-23 -32 -42 44 c-22 24 -52 51 -65
59 l-25 16 46 31 c25 17 53 43 62 57 l18 27 28 -39 c16 -21 43 -47 59 -58z
m1463 23 c74 -34 110 -68 145 -135 37 -69 49 -143 33 -204 -41 -162 -155 -247
-318 -237 -132 8 -227 76 -272 195 -36 96 -24 195 33 279 82 123 241 165 379
102z m669 -502 c-1 -75 0 -136 2 -136 2 0 21 26 42 58 21 31 48 72 62 90 l24
32 60 -46 c32 -26 59 -52 59 -59 0 -28 -305 -465 -324 -465 -7 0 -21 9 -32 21
-16 17 -20 47 -29 192 l-10 171 -57 -75 c-31 -41 -67 -87 -80 -103 l-24 -28
-62 52 c-35 29 -62 58 -60 64 2 7 77 112 167 233 l165 222 49 -43 50 -43 -2
-137z m-4136 187 c46 -24 114 -93 142 -144 28 -53 26 -208 -5 -270 -51 -104
-136 -160 -253 -167 -109 -6 -168 15 -240 87 -71 72 -94 132 -87 235 9 134 88
235 218 277 46 15 181 4 225 -18z m2290 -213 c715 -98 1374 -420 1913 -935
424 -405 762 -979 872 -1482 l18 -83 -191 -1 c-106 -1 -204 -1 -219 -1 l-28 1
0 -130 0 -129 -42 -1 c-24 0 -117 0 -208 1 -91 0 -188 -4 -217 -10 -77 -17
-140 -61 -164 -116 -19 -42 -21 -72 -25 -426 -3 -293 -7 -384 -16 -390 -10 -6
-10 -8 0 -8 8 0 12 -16 12 -45 0 -25 -4 -45 -9 -45 -5 0 -12 -7 -15 -16 -5
-14 -4 -15 9 -4 18 15 21 -1 4 -32 -8 -15 -8 -19 1 -13 8 5 10 -8 9 -44 -2
-28 -5 -49 -7 -46 -6 6 -32 -21 -32 -33 0 -6 -6 -12 -12 -15 -7 -2 -9 -8 -5
-13 8 -8 14 -1 37 36 4 8 11 12 15 8 9 -8 -21 -64 -38 -71 -19 -7 -41 31 -28
47 6 7 8 27 5 45 -4 20 -3 31 5 31 6 0 12 -10 12 -22 1 -17 2 -19 6 -5 2 9 8
17 13 17 4 0 11 7 14 16 5 14 4 15 -9 4 -20 -17 -32 -5 -15 15 8 9 8 15 2 15
-12 0 -52 -53 -52 -69 0 -6 -4 -11 -10 -11 -5 0 -10 -7 -10 -15 0 -8 5 -15 10
-15 6 0 10 7 10 15 0 8 5 15 10 15 15 0 12 -17 -7 -35 -14 -14 -14 -18 -2 -25
10 -7 11 -12 2 -21 -14 -14 -33 17 -36 61 -1 17 -5 30 -9 30 -15 0 -8 -46 12
-85 23 -45 23 -45 11 -45 -5 0 -11 10 -14 21 -4 14 -11 20 -21 16 -17 -7 -41
17 -31 33 3 5 -1 10 -10 10 -11 0 -15 -5 -11 -15 3 -8 1 -15 -4 -15 -6 0 -10
12 -10 26 0 21 4 25 25 22 13 -2 24 -1 23 2 -1 3 4 15 10 27 8 14 18 20 31 16
13 -3 21 2 26 17 4 12 4 24 1 27 -3 4 -6 -1 -6 -9 0 -9 -12 -18 -29 -21 -17
-4 -31 -14 -33 -23 -4 -20 -48 -27 -48 -7 0 7 9 13 20 13 23 0 23 0 10 34 -7
19 -6 26 2 26 6 0 8 3 5 6 -4 4 -13 2 -21 -5 -12 -10 -14 18 -15 191 -2 214
-7 278 -24 278 -8 0 -216 90 -218 94 0 0 -2 30 -5 66 -7 80 -47 265 -80 368
-93 287 -310 589 -571 792 l-32 25 35 94 c52 137 67 233 61 371 -5 121 -31
232 -82 345 l-25 57 0 414 c0 332 -3 414 -13 414 -7 0 -73 -41 -147 -91 -74
-50 -197 -131 -272 -181 l-137 -90 -113 23 c-160 34 -395 34 -557 1 l-113 -23
-277 184 -276 184 -5 -426 -5 -426 -31 -65 c-61 -126 -79 -209 -79 -370 0
-160 14 -232 67 -350 l29 -65 -32 -25 c-176 -133 -337 -312 -446 -495 -129
-217 -193 -398 -214 -610 -6 -60 -13 -115 -14 -121 -2 -6 -49 -30 -104 -54
-56 -23 -103 -46 -106 -50 -2 -4 -5 -106 -6 -228 -1 -156 -4 -222 -12 -226 -8
-3 -9 -7 -2 -13 17 -13 16 -53 -1 -53 -8 0 -15 -3 -15 -7 -6 -34 -5 -53 2 -53
5 0 9 -7 9 -16 0 -8 4 -13 9 -9 5 3 12 1 16 -5 3 -5 0 -10 -7 -10 -8 0 -19
-14 -25 -30 -6 -16 -8 -30 -4 -30 4 0 7 -10 8 -22 2 -21 0 -20 -13 5 -13 24
-13 32 -1 55 16 33 1 56 -30 46 -16 -5 -16 -4 1 10 21 17 15 35 -6 19 -7 -6
-22 -12 -33 -15 -31 -7 -33 57 -3 83 l23 20 -24 -11 c-19 -10 -22 -9 -19 2 3
7 14 14 26 16 12 2 22 7 22 12 0 6 -10 6 -25 0 l-24 -9 -1 461 c0 309 -4 475
-12 506 -14 57 -78 125 -133 143 -26 8 -121 14 -276 16 l-235 4 1 87 c1 48 0
106 -3 130 l-4 42 -254 0 c-174 0 -254 3 -254 11 0 26 54 225 92 339 80 237
268 578 455 825 399 525 889 893 1498 1123 272 103 555 174 795 201 52 6 111
13 130 15 67 8 545 -3 625 -14z m-3052 -269 c15 -14 27 -28 27 -33 0 -4 -38
-51 -85 -105 l-86 -97 31 -30 c21 -22 33 -27 38 -19 4 6 41 46 81 88 l74 76
36 -33 c20 -18 40 -36 45 -40 9 -7 -63 -106 -113 -152 -38 -36 -38 -46 -5 -77
l26 -24 97 101 96 102 55 -48 55 -49 -81 -83 c-45 -46 -119 -123 -166 -172
l-85 -89 -120 124 c-65 68 -156 163 -202 212 l-83 87 31 39 c17 21 83 93 147
160 130 136 111 130 187 62z m5627 -164 l123 -138 -47 -48 -47 -47 -84 85
c-82 84 -84 85 -104 67 -25 -22 -21 -31 51 -117 l52 -62 -45 -40 -44 -39 -70
76 c-39 42 -75 76 -80 76 -12 0 -55 -41 -55 -53 0 -6 32 -47 72 -91 39 -45 78
-89 86 -98 12 -15 10 -20 -24 -50 -68 -60 -73 -62 -96 -41 -11 10 -79 85 -151
167 l-131 149 74 66 c41 36 137 123 214 193 l141 128 21 -23 c11 -12 76 -84
144 -160z m-3654 -389 c142 -145 136 -129 64 -178 -33 -23 -83 -61 -111 -86
-27 -24 -54 -44 -59 -44 -6 0 -10 80 -10 205 0 113 3 205 8 205 4 0 53 -46
108 -102z m1473 -120 c1 -104 -1 -188 -4 -188 -3 0 -30 20 -60 44 -30 25 -81
63 -115 86 -33 22 -60 46 -60 53 0 6 50 60 112 120 94 91 113 105 119 90 4
-10 8 -102 8 -205z m2457 140 c15 -29 35 -66 46 -81 22 -31 22 -32 -16 -129
l-25 -66 101 -24 102 -23 22 -61 c38 -106 37 -104 16 -104 -11 0 -84 12 -162
26 l-142 26 -107 -50 c-58 -28 -122 -58 -142 -66 l-37 -15 -24 37 c-49 74 -59
94 -55 106 3 7 57 36 120 65 l114 53 48 122 c49 122 101 236 110 236 3 0 17
-24 31 -52z m-6448 5 c20 -15 60 -43 87 -63 84 -62 330 -243 334 -246 4 -4
-54 -91 -89 -133 l-20 -24 -38 26 c-20 15 -64 49 -97 76 -33 27 -61 49 -62 47
-1 -1 12 -47 28 -101 17 -55 33 -108 36 -117 5 -16 -7 -18 -116 -20 l-121 -3
110 -68 c60 -38 110 -70 110 -73 0 -3 -21 -35 -46 -70 -29 -41 -52 -63 -60
-60 -28 11 -466 311 -471 322 -2 7 15 42 39 78 l43 66 133 0 c114 0 132 2 132
16 0 13 -47 189 -65 241 -4 12 79 133 91 133 3 0 22 -12 42 -27z m3431 -28
c57 -8 121 -20 143 -26 38 -10 39 -11 23 -29 -9 -10 -33 -30 -53 -43 -37 -25
-37 -25 -102 -10 -95 23 -410 22 -509 0 l-73 -17 -50 42 c-49 40 -49 42 -27
50 115 43 457 60 648 33z m-595 -398 c89 -37 155 -152 144 -250 -15 -130 -117
-221 -248 -222 -77 0 -136 29 -193 96 -80 93 -71 249 20 330 49 44 63 52 111
64 55 15 99 10 166 -18z m924 -6 c111 -57 164 -206 113 -318 -91 -200 -364
-199 -457 2 -41 86 -25 185 41 263 75 87 195 108 303 53z m377 -391 c8 -16 15
-31 15 -33 0 -5 -94 -47 -104 -47 -10 0 -38 62 -31 68 7 8 85 41 97 41 4 1 14
-12 23 -29z m-1808 4 c47 -18 52 -31 25 -64 -19 -23 -19 -23 -66 -5 -54 21
-60 28 -52 61 8 29 32 31 93 8z m1033 -74 c21 -22 83 -68 138 -103 54 -36 108
-77 120 -92 19 -24 20 -30 8 -54 -59 -113 -245 -120 -350 -12 -38 39 -38 41
-22 63 9 13 32 45 51 72 56 77 57 76 -120 76 -85 0 -155 -3 -155 -7 0 -13 40
-75 77 -120 l34 -41 -32 -37 c-49 -55 -102 -79 -179 -80 -53 0 -73 5 -111 27
-53 31 -83 70 -74 98 9 27 64 73 134 110 33 18 87 57 118 86 l58 53 133 1 133
0 39 -40z m-835 -41 c30 -11 55 -22 55 -24 0 -18 -27 -55 -40 -55 -21 0 -112
30 -124 41 -5 4 -6 19 -2 33 8 33 35 34 111 5z m1434 -5 c14 -32 14 -33 -51
-56 -70 -24 -86 -23 -94 7 -8 31 -4 35 49 57 60 24 82 22 96 -8z m-4320 -143
c-19 -22 -37 -41 -41 -41 -4 0 -25 17 -47 38 l-40 37 42 42 41 42 39 -38 39
-39 -33 -41z m7200 0 c-19 -22 -36 -41 -39 -41 -3 0 -23 18 -45 40 l-39 40 39
39 40 40 38 -39 39 -38 -33 -41z m-7051 -117 c2 -1 -18 -23 -43 -50 l-47 -47
-38 44 -38 44 42 42 41 41 40 -36 c22 -20 41 -38 43 -38z m6980 -1 c2 -1 -13
-22 -34 -47 l-37 -45 -44 45 -44 46 38 37 38 38 40 -36 c22 -20 41 -37 43 -38z
m-7279 -33 l42 -40 -21 -28 c-11 -15 -29 -37 -38 -49 l-17 -22 -49 45 -49 45
44 44 c24 25 44 45 45 45 0 0 20 -18 43 -40z m3121 21 c19 -36 11 -49 -47 -81
-84 -45 -101 -47 -109 -16 -9 38 -3 46 61 82 71 39 81 40 95 15z m1248 -10
c75 -38 97 -62 82 -90 -15 -29 -31 -27 -111 15 -69 37 -78 49 -59 85 14 25 20
24 88 -10z m3122 -15 l47 -44 -50 -48 c-47 -45 -51 -47 -61 -29 -6 11 -25 35
-43 53 l-32 33 29 17 c16 9 35 27 41 39 7 13 15 23 17 23 3 0 26 -20 52 -44z
m-3754 -31 c20 -20 61 -47 92 -61 l57 -25 -39 -24 c-73 -44 -210 -45 -293 -2
l-42 22 63 33 c34 18 76 46 91 62 16 17 30 30 32 30 2 0 20 -16 39 -35z m-846
-247 c0 -5 -40 -49 -89 -98 -125 -126 -240 -283 -256 -352 l-7 -28 261 0 262
0 25 -25 c16 -16 24 -34 22 -48 l-3 -22 -311 -3 -312 -2 -17 -43 c-10 -23 -32
-86 -50 -141 l-31 -98 -57 -24 -57 -23 0 27 c1 78 64 282 135 429 92 194 225
363 377 484 l53 41 27 -33 c16 -18 28 -37 28 -41z m409 2 c118 -43 233 -61
401 -61 183 -1 296 19 446 79 l51 21 37 -25 c46 -31 40 -40 -51 -82 -116 -53
-250 -82 -408 -89 -233 -10 -415 22 -574 99 l-84 41 34 29 c19 15 41 26 49 24
8 -3 53 -19 99 -36z m-2986 -92 c-3 -18 -12 -47 -19 -65 l-13 -32 -330 0
c-182 0 -331 2 -331 5 0 13 30 61 48 77 45 41 85 46 374 47 l278 0 -7 -32z
m7387 6 c32 -19 80 -76 80 -95 0 -5 -146 -9 -324 -9 l-324 0 -11 48 c-7 26
-14 55 -17 65 -5 17 8 18 278 15 264 -3 285 -4 318 -24z m-3914 -420 c49 -20
91 -37 93 -39 1 -2 -8 -19 -22 -37 -14 -18 -37 -58 -52 -88 -34 -69 -29 -65
-63 -51 -26 11 -39 8 -123 -30 -52 -23 -175 -76 -274 -119 -99 -43 -254 -111
-345 -150 -91 -40 -291 -126 -444 -192 -154 -66 -316 -137 -361 -158 l-82 -37
-6 -48 c-4 -26 -7 -97 -7 -156 0 -109 0 -109 -24 -109 -14 0 -37 10 -52 23
-35 31 -43 80 -43 288 -1 146 1 168 17 181 17 16 160 81 452 208 91 40 219 96
285 125 66 29 239 104 385 168 218 95 573 253 576 256 0 1 40 -15 90 -35z
m998 30 c12 -4 16 -20 16 -55 l0 -48 -307 -3 -308 -3 -47 -28 c-41 -24 -61
-46 -114 -124 -8 -11 -19 -14 -42 -8 -18 3 -32 12 -32 18 0 29 52 119 89 156
88 88 140 99 473 100 141 1 263 -2 272 -5z m-3938 -27 c36 -31 36 -73 0 -104
l-27 -23 -605 0 -605 0 -24 25 c-14 13 -25 36 -25 50 0 14 11 37 25 50 l24 25
605 0 605 0 27 -23z m6988 2 c31 -25 34 -66 7 -100 l-19 -24 -585 0 c-561 0
-586 1 -606 19 -31 28 -28 79 5 105 26 21 35 21 599 21 564 0 573 0 599 -21z
m-6774 -429 l0 -161 -117 3 -118 3 -3 149 c-2 114 0 151 10 157 7 5 61 9 121
9 l107 0 0 -160z m380 0 l0 -160 -120 0 -120 0 0 160 0 160 120 0 120 0 0
-160z m4868 -2 l3 -158 -121 0 -120 0 0 160 0 161 118 -3 117 -3 3 -157z m360
156 c21 -6 22 -10 22 -144 0 -76 -3 -145 -6 -154 -5 -13 -26 -16 -125 -16
l-119 0 0 153 c0 85 3 157 7 160 8 9 190 9 221 1z m-6309 -53 c15 -15 80 -97
145 -180 l118 -152 -25 -37 c-14 -20 -78 -104 -144 -187 l-118 -150 -317 -3
-317 -2 20 45 c78 176 80 459 4 630 -14 32 -25 59 -25 61 0 2 142 4 316 4
l316 0 27 -29z m7401 24 c0 -3 -11 -33 -25 -68 -70 -169 -68 -426 4 -605 11
-29 21 -55 21 -57 0 -3 -135 -5 -299 -5 l-300 0 -40 48 c-95 113 -251 318
-251 328 0 6 63 91 140 188 l141 176 304 0 c168 0 305 -2 305 -5z m-2760 -238
l425 -193 0 -205 c0 -182 -2 -208 -18 -233 -15 -23 -70 -56 -92 -56 -3 0 -5
70 -5 155 l0 155 -77 39 c-43 21 -112 53 -153 71 -114 50 -585 262 -588 265
-2 2 7 23 21 47 14 24 30 61 37 83 18 61 19 65 23 65 1 0 194 -87 427 -193z
m-1276 96 c4 -32 17 -81 30 -110 28 -59 96 -137 139 -160 l29 -15 -33 -35
c-50 -51 -91 -66 -184 -67 -64 0 -89 4 -122 22 -96 50 -155 134 -169 239 l-6
51 53 25 c134 63 235 107 245 107 6 0 14 -25 18 -57z m-440 -174 c19 -120 118
-253 230 -308 172 -84 363 -49 493 93 l58 63 67 5 c67 6 181 49 220 84 15 14
31 10 170 -51 84 -37 230 -100 323 -140 94 -40 196 -84 228 -98 l57 -26 0
-110 0 -111 -522 0 c-288 0 -929 -1 -1425 -3 l-903 -2 0 111 0 111 38 15 c20
9 84 36 142 61 58 25 186 80 285 123 99 42 257 110 350 150 94 41 173 74 176
74 4 0 9 -18 13 -41z m-2222 -281 c3 -84 2 -157 -1 -161 -4 -4 -59 -6 -121 -5
l-113 3 1 155 c1 85 1 156 1 158 1 1 52 2 115 2 l113 0 5 -152z m378 -8 l0
-160 -120 0 -120 0 0 160 0 160 120 0 120 0 0 -160z m4868 -2 l3 -158 -121 0
-120 0 0 160 0 161 118 -3 117 -3 3 -157z m382 18 c0 -79 -3 -151 -6 -160 -5
-13 -26 -16 -125 -16 l-119 0 0 160 0 160 125 0 125 0 0 -144z m-1074 -223
c-10 -10 -19 5 -10 18 6 11 8 11 12 0 2 -7 1 -15 -2 -18z m-3809 -54 c0 -28
-2 -30 -13 -14 -7 9 -10 23 -7 31 9 24 20 15 20 -17z m-87 -39 c0 -5 -4 -10
-10 -10 -5 0 -10 5 -10 10 0 6 5 10 10 10 6 0 10 -4 10 -10z m4084 -29 c-5 -3
-21 -23 -37 -43 -22 -30 -25 -41 -17 -62 5 -14 14 -26 20 -26 5 0 10 -4 10
-10 0 -20 -15 -9 -38 26 l-23 35 23 32 c34 49 63 77 67 65 2 -5 -1 -13 -5 -17z
m-4034 9 c0 -5 -4 -10 -10 -10 -5 0 -10 5 -10 10 0 6 5 10 10 10 6 0 10 -4 10
-10z m-1550 -22 c11 -12 20 -30 20 -39 0 -26 -21 -67 -37 -73 -7 -3 -145 -6
-306 -6 l-292 -1 -22 26 c-28 32 -29 55 -2 89 l20 26 299 0 c295 0 300 0 320
-22z m458 -140 l-3 -161 -25 -3 c-14 -1 -67 0 -117 3 l-93 6 0 158 0 159 120
0 120 0 -2 -162z m387 2 l0 -155 -115 -5 c-63 -3 -116 -5 -116 -5 -1 0 -5 73
-9 163 l-7 163 124 -3 123 -3 0 -155z m375 1 l0 -160 -52 -6 c-29 -3 -82 -5
-118 -2 l-65 3 -3 162 -2 162 120 0 120 0 0 -159z m304 143 c9 -24 7 -31 -5
-12 -10 18 -37 14 -51 -6 -5 -7 -8 -7 -8 2 0 7 10 17 23 22 31 12 34 12 41 -6z
m4566 -144 l0 -160 -120 0 -120 0 0 160 0 160 120 0 120 0 0 -160z m378 8 c-2
-84 -6 -157 -10 -163 -4 -6 -52 -9 -122 -7 l-116 3 0 160 0 159 126 0 126 0
-4 -152z m382 -8 c0 -146 -2 -160 -17 -160 -10 0 -64 -1 -121 -3 l-102 -2 0
163 0 162 120 0 120 0 0 -160z m774 138 c9 -12 16 -34 16 -48 0 -14 -7 -36
-16 -48 -15 -22 -18 -22 -280 -22 -251 0 -265 1 -284 20 -11 11 -20 33 -20 50
0 17 9 39 20 50 19 19 33 20 284 20 262 0 265 0 280 -22z m-6023 -11 c-17 -17
-13 -27 7 -21 13 5 14 4 3 -4 -8 -6 -11 -17 -7 -28 4 -9 2 -20 -4 -24 -7 -4
-6 -18 5 -43 18 -43 18 -47 5 -47 -5 0 -10 11 -10 25 0 14 -4 25 -9 25 -15 0
-20 38 -5 44 11 4 11 10 -3 34 -14 25 -15 31 -2 44 8 9 18 14 22 11 5 -3 4
-10 -2 -16z m3789 7 c0 -10 5 -14 15 -10 8 3 22 9 30 12 8 3 15 1 15 -5 0 -6
-3 -10 -7 -8 -12 3 -12 -15 0 -40 6 -13 19 -23 31 -23 16 0 17 -3 8 -12 -10
-10 -18 -7 -37 14 -14 15 -25 32 -25 38 0 5 -9 10 -20 10 -11 0 -20 2 -20 4 0
2 -3 11 -6 20 -3 9 -1 16 5 16 6 0 11 -7 11 -16z m126 -11 c-10 -10 -19 5 -10
18 6 11 8 11 12 0 2 -7 1 -15 -2 -18z m-4006 -3 c0 -5 -5 -10 -11 -10 -5 0 -7
5 -4 10 3 6 8 10 11 10 2 0 4 -4 4 -10z m4072 -26 c-6 -11 -11 -13 -16 -5 -4
6 -2 11 3 11 6 0 11 8 12 18 0 9 3 12 5 5 3 -7 1 -20 -4 -29z m-82 6 c0 -4 -5
-11 -12 -18 -8 -8 -15 -9 -25 -1 -20 17 -16 27 12 25 14 0 25 -3 25 -6z
m-3997 -21 c10 -11 16 -24 13 -27 -4 -3 -12 3 -20 13 -7 10 -18 15 -24 11 -7
-4 -12 -1 -12 8 0 22 22 20 43 -5z m3910 -9 c19 -23 21 -30 7 -30 -5 0 -25
-16 -45 -37 -19 -20 -35 -31 -35 -25 0 7 9 17 20 24 23 15 27 38 6 38 -14 0
-30 29 -21 38 3 3 5 0 5 -6 0 -7 7 -12 15 -12 8 0 15 -4 15 -10 0 -5 5 -10 10
-10 6 0 10 7 10 15 0 8 -4 15 -10 15 -5 0 -10 5 -10 10 0 16 14 12 33 -10z
m142 0 c3 -5 1 -10 -4 -10 -6 0 -11 5 -11 10 0 6 2 10 4 10 3 0 8 -4 11 -10z
m35 -6 c0 -7 -27 -34 -34 -34 -4 0 -1 9 6 20 12 19 28 27 28 14z m-4110 -14
c0 -5 -5 -10 -11 -10 -5 0 -7 5 -4 10 3 6 8 10 11 10 2 0 4 -4 4 -10z m56 -16
c-9 -9 -20 -14 -23 -10 -4 3 2 13 13 20 25 18 31 12 10 -10z m3814 -9 c0 -1
-6 -7 -13 -13 -10 -8 -13 -6 -13 7 0 11 6 17 13 14 7 -3 13 -6 13 -8z m154 6
c3 -5 -3 -11 -13 -14 -14 -3 -18 -1 -14 9 6 16 19 18 27 5z m-4004 -17 c0 -8
-4 -12 -10 -9 -5 3 -10 10 -10 16 0 5 5 9 10 9 6 0 10 -7 10 -16z m70 6 c0 -5
-4 -10 -10 -10 -5 0 -10 5 -10 10 0 6 5 10 10 10 6 0 10 -4 10 -10z m3880 0
c0 -5 -4 -10 -10 -10 -5 0 -10 5 -10 10 0 6 5 10 10 10 6 0 10 -4 10 -10z
m-3977 -20 c3 -11 1 -20 -4 -20 -5 0 -9 9 -9 20 0 11 2 20 4 20 2 0 6 -9 9
-20z m197 10 c0 -5 -5 -10 -11 -10 -5 0 -7 5 -4 10 3 6 8 10 11 10 2 0 4 -4 4
-10z m3657 -56 c-3 -3 -13 8 -21 25 -23 43 -19 52 5 13 12 -18 19 -35 16 -38z
m93 46 c0 -5 -5 -10 -11 -10 -5 0 -7 5 -4 10 3 6 8 10 11 10 2 0 4 -4 4 -10z
m100 0 c0 -5 -4 -10 -10 -10 -5 0 -10 5 -10 10 0 6 5 10 10 10 6 0 10 -4 10
-10z m-4004 -27 c-10 -10 -19 5 -10 18 6 11 8 11 12 0 2 -7 1 -15 -2 -18z m34
13 c0 -8 3 -22 7 -32 4 -11 3 -15 -4 -11 -13 8 -23 57 -12 57 5 0 9 -6 9 -14z
m39 -31 c0 -5 -6 -1 -14 9 -8 10 -11 24 -8 29 6 10 21 -16 22 -38z m3901 35
c0 -5 -4 -10 -10 -10 -5 0 -10 5 -10 10 0 6 5 10 10 10 6 0 10 -4 10 -10z
m-3840 -10 c0 -5 -4 -10 -10 -10 -5 0 -10 5 -10 10 0 6 5 10 10 10 6 0 10 -4
10 -10z m3636 -17 c-6 -6 -36 9 -36 18 0 5 9 4 20 -3 10 -7 18 -14 16 -15z
m169 6 c4 -12 13 -18 20 -15 9 3 12 0 8 -10 -5 -13 -10 -11 -29 7 -25 23 -31
39 -15 39 5 0 13 -9 16 -21z m100 10 c11 -17 -1 -21 -15 -4 -8 9 -8 15 -2 15
6 0 14 -5 17 -11z m-155 -3 c0 -3 -4 -8 -10 -11 -5 -3 -10 -1 -10 4 0 6 5 11
10 11 6 0 10 -2 10 -4z m125 -16 c3 -5 -1 -10 -10 -10 -9 0 -13 5 -10 10 3 6
8 10 10 10 2 0 7 -4 10 -10z m-4045 -4 c0 -3 -4 -8 -10 -11 -5 -3 -10 -1 -10
4 0 6 5 11 10 11 6 0 10 -2 10 -4z m190 -17 c0 -6 -4 -7 -10 -4 -5 3 -10 11
-10 16 0 6 5 7 10 4 6 -3 10 -11 10 -16z m24 5 c3 -8 2 -12 -4 -9 -6 3 -10 10
-10 16 0 14 7 11 14 -7z m28 -16 c-8 -8 -9 -4 -5 13 4 13 8 18 11 10 2 -7 -1
-18 -6 -23z m3708 26 c0 -9 -28 -34 -38 -34 -6 0 -12 -6 -15 -12 -2 -7 -8 -10
-12 -6 -9 8 18 38 34 38 6 0 11 5 11 10 0 6 5 10 10 10 6 0 10 -3 10 -6z m151
-17 c-10 -9 -11 -8 -5 6 3 10 9 15 12 12 3 -3 0 -11 -7 -18z m-3245 -1 c1 0 5
-410 8 -910 5 -709 9 -912 19 -918 6 -5 32 -7 57 -6 l45 3 5 912 c4 649 8 915
16 923 6 6 33 10 60 8 l49 -3 3 -956 2 -957 -32 -3 c-18 -2 -120 -3 -225 -1
l-193 3 0 928 c0 511 3 943 6 961 l7 32 86 -7 c47 -4 87 -8 87 -9z m1574 4 c0
-21 -30 -69 -49 -79 -11 -6 -149 -11 -340 -12 -321 -1 -322 -1 -346 21 -13 12
-28 35 -34 51 l-10 29 390 0 c265 0 389 -3 389 -10z m1360 -1 c0 -6 -9 -8 -20
-4 -11 4 -20 2 -20 -4 0 -6 -5 -11 -11 -11 -8 0 -8 5 1 15 14 17 50 20 50 4z
m28 -9 c-7 -11 -16 -20 -20 -20 -5 0 -3 9 4 20 7 11 16 20 20 20 5 0 3 -9 -4
-20z m-3658 6 c0 -11 -19 -15 -25 -6 -3 5 1 10 9 10 9 0 16 -2 16 -4z m130 -6
c0 -5 -4 -10 -10 -10 -5 0 -10 5 -10 10 0 6 5 10 10 10 6 0 10 -4 10 -10z m55
0 c3 -5 1 -10 -4 -10 -6 0 -11 5 -11 10 0 6 2 10 4 10 3 0 8 -4 11 -10z m3015
-945 l0 -955 -120 0 -120 0 0 925 c0 508 3 938 6 955 l7 30 113 0 114 0 0
-955z m340 945 c0 -5 -2 -10 -4 -10 -3 0 -8 5 -11 10 -3 6 -1 10 4 10 6 0 11
-4 11 -10z m170 0 c0 -5 -2 -10 -4 -10 -3 0 -8 5 -11 10 -3 6 -1 10 4 10 6 0
11 -4 11 -10z m-3805 -18 c-3 -3 -11 0 -18 7 -9 10 -8 11 6 5 10 -3 15 -9 12
-12z m27 -4 c-14 -14 -16 -42 -2 -33 5 3 18 1 27 -5 15 -9 15 -11 2 -7 -9 3
-21 1 -27 -5 -15 -15 -25 27 -12 52 7 12 14 19 18 16 3 -4 0 -12 -6 -18z
m3888 18 c0 -3 -4 -8 -10 -11 -5 -3 -10 -1 -10 4 0 6 5 11 10 11 6 0 10 -2 10
-4z m-3947 -36 c3 -11 2 -18 -3 -15 -4 3 -10 14 -13 25 -3 11 -2 18 3 15 4 -3
10 -14 13 -25z m111 -2 c-2 -4 0 -9 6 -13 5 -3 10 -12 10 -18 0 -7 -8 0 -18
16 -10 15 -22 24 -26 20 -4 -4 -4 0 -1 9 5 14 10 15 20 5 7 -7 11 -15 9 -19z
m47 23 c-7 -5 -10 -14 -7 -20 4 -6 3 -11 -2 -11 -15 0 -22 28 -9 34 20 8 33 6
18 -3z m3545 -31 c8 0 14 -5 14 -11 0 -5 -4 -7 -10 -4 -5 3 -10 -1 -10 -9 0
-9 -5 -16 -10 -16 -6 0 -8 -17 -5 -42 l5 -43 -11 43 c-8 33 -7 47 2 58 10 12
10 17 1 23 -8 5 -10 15 -5 27 7 18 8 17 11 -3 2 -13 10 -23 18 -23z m207 25
c-3 -9 -8 -14 -10 -11 -3 3 -2 9 2 15 9 16 15 13 8 -4z m134 -17 c-3 -7 -5 -2
-5 12 0 14 2 19 5 13 2 -7 2 -19 0 -25z m-387 12 c0 -5 -4 -10 -10 -10 -5 0
-10 5 -10 10 0 6 5 10 10 10 6 0 10 -4 10 -10z m80 0 c-19 -13 -30 -13 -30 0
0 6 10 10 23 10 18 0 19 -2 7 -10z m-3516 -16 c9 -22 -3 -32 -14 -14 -12 19
-12 30 -1 30 5 0 12 -7 15 -16z m3576 6 c0 -5 -4 -10 -10 -10 -5 0 -10 5 -10
10 0 6 5 10 10 10 6 0 10 -4 10 -10z m45 0 c3 -5 2 -10 -4 -10 -5 0 -13 5 -16
10 -3 6 -2 10 4 10 5 0 13 -4 16 -10z m140 -1 c11 -17 -1 -21 -15 -4 -8 9 -8
15 -2 15 6 0 14 -5 17 -11z m-3725 -3 c0 -3 -4 -8 -10 -11 -5 -3 -10 -1 -10 4
0 6 5 11 10 11 6 0 10 -2 10 -4z m3690 0 c0 -3 -4 -8 -10 -11 -5 -3 -10 -1
-10 4 0 6 5 11 10 11 6 0 10 -2 10 -4z m-3956 -46 c-6 -5 -24 21 -24 34 0 6 6
1 14 -10 8 -10 12 -21 10 -24z m206 5 c0 -5 -5 -3 -10 5 -5 8 -10 20 -10 25 0
6 5 3 10 -5 5 -8 10 -19 10 -25z m94 20 c3 -8 1 -15 -4 -15 -6 0 -10 7 -10 15
0 8 2 15 4 15 2 0 6 -7 10 -15z m3471 4 c11 -17 -1 -21 -15 -4 -8 9 -8 15 -2
15 6 0 14 -5 17 -11z m48 -4 c-3 -9 -8 -14 -10 -11 -3 3 -2 9 2 15 9 16 15 13
8 -4z m-3478 -5 c3 -5 1 -10 -4 -10 -6 0 -11 5 -11 10 0 6 2 10 4 10 3 0 8 -4
11 -10z m3525 0 c0 -5 -2 -10 -4 -10 -3 0 -8 5 -11 10 -3 6 -1 10 4 10 6 0 11
-4 11 -10z m-3590 -10 c0 -5 -2 -10 -4 -10 -3 0 -8 5 -11 10 -3 6 -1 10 4 10
6 0 11 -4 11 -10z m3330 6 c0 -3 -4 -8 -10 -11 -5 -3 -10 -1 -10 4 0 6 5 11
10 11 6 0 10 -2 10 -4z m325 -6 c3 -5 2 -10 -4 -10 -5 0 -13 5 -16 10 -3 6 -2
10 4 10 5 0 13 -4 16 -10z m95 0 c0 -5 -2 -10 -4 -10 -3 0 -8 5 -11 10 -3 6
-1 10 4 10 6 0 11 -4 11 -10z m-3780 -10 c0 -5 -5 -10 -11 -10 -5 0 -7 5 -4
10 3 6 8 10 11 10 2 0 4 -4 4 -10z m3509 -24 c0 -20 -1 -20 -10 3 -9 23 -10
24 -24 5 -8 -10 -15 -14 -15 -8 0 16 21 33 36 27 8 -3 14 -15 13 -27z m-3669
14 c0 -5 -4 -10 -10 -10 -5 0 -10 5 -10 10 0 6 5 10 10 10 6 0 10 -4 10 -10z
m32 -15 c3 -13 2 -22 -2 -20 -11 7 -20 45 -10 45 4 0 10 -11 12 -25z m3678 15
c0 -5 -4 -10 -10 -10 -5 0 -10 5 -10 10 0 6 5 10 10 10 6 0 10 -4 10 -10z m55
-8 c-3 -3 -11 0 -18 7 -9 10 -8 11 6 5 10 -3 15 -9 12 -12z m-3565 -5 c0 -7
-9 -13 -20 -14 -11 -1 -20 3 -20 8 0 6 4 8 9 4 5 -3 12 -1 16 5 9 14 15 13 15
-3z m3370 3 c0 -5 -5 -10 -11 -10 -5 0 -7 5 -4 10 3 6 8 10 11 10 2 0 4 -4 4
-10z m300 0 c0 -5 -4 -10 -10 -10 -5 0 -10 5 -10 10 0 6 5 10 10 10 6 0 10 -4
10 -10z m-5594 -12 c1 -2 4 -167 5 -366 2 -439 14 -405 -140 -410 -90 -3 -100
-2 -110 16 -45 84 -229 739 -214 764 3 7 452 3 459 -4z m1829 2 c3 -5 1 -10
-4 -10 -6 0 -11 5 -11 10 0 6 2 10 4 10 3 0 8 -4 11 -10z m5864 -87 c-56 -256
-170 -643 -201 -680 -14 -17 -135 -17 -168 0 -15 7 -29 27 -35 47 -6 22 -9
168 -7 377 l3 342 107 3 c59 2 155 2 213 0 l107 -3 -19 -86z m-6009 77 c0 -5
-8 -10 -17 -10 -15 0 -16 2 -3 10 19 12 20 12 20 0z m45 0 c3 -5 1 -10 -4 -10
-6 0 -11 5 -11 10 0 6 2 10 4 10 3 0 8 -4 11 -10z m240 0 c3 -5 1 -10 -4 -10
-6 0 -11 5 -11 10 0 6 2 10 4 10 3 0 8 -4 11 -10z m3555 6 c0 -2 -7 -6 -15
-10 -8 -3 -15 -1 -15 4 0 6 7 10 15 10 8 0 15 -2 15 -4z m152 -28 c-8 -8 -9
-4 -5 13 4 13 8 18 11 10 2 -7 -1 -18 -6 -23z m-3802 12 c0 -5 -4 -10 -10 -10
-5 0 -10 5 -10 10 0 6 5 10 10 10 6 0 10 -4 10 -10z m1332 -37 c16 -15 33 -43
38 -62 6 -23 10 -344 10 -848 l0 -813 -62 -1 c-35 -1 -89 -2 -120 -3 l-57 -1
-6 40 c-3 22 -5 396 -3 830 3 773 3 791 23 825 42 71 122 86 177 33z m1192 22
c18 -9 41 -30 51 -48 19 -31 20 -58 23 -863 2 -827 2 -832 -18 -837 -11 -3
-65 -3 -120 0 l-100 6 2 836 c3 786 4 838 21 862 18 27 70 58 95 59 8 0 28 -7
46 -15z m1067 -12 c-12 -20 -14 -14 -5 12 4 9 9 14 11 11 3 -2 0 -13 -6 -23z
m-3666 7 c-3 -5 -12 -10 -18 -10 -7 0 -6 4 3 10 19 12 23 12 15 0z m110 -11
c-10 -15 -25 -10 -19 6 4 8 10 12 15 9 5 -3 7 -10 4 -15z m3505 17 c0 -2 -7
-7 -16 -10 -8 -3 -12 -2 -9 4 6 10 25 14 25 6z m-3460 -26 c0 -5 -4 -10 -10
-10 -5 0 -10 5 -10 10 0 6 5 10 10 10 6 0 10 -4 10 -10z m3360 0 c0 -5 -2 -10
-4 -10 -3 0 -8 5 -11 10 -3 6 -1 10 4 10 6 0 11 -4 11 -10z m-3670 -10 c0 -5
-2 -10 -4 -10 -3 0 -8 5 -11 10 -3 6 -1 10 4 10 6 0 11 -4 11 -10z m275 -10
c3 -5 1 -10 -4 -10 -6 0 -11 5 -11 10 0 6 2 10 4 10 3 0 8 -4 11 -10z m42 -32
c-3 -8 -6 -5 -6 6 -1 11 2 17 5 13 3 -3 4 -12 1 -19z m3373 2 c0 -5 -4 -10
-10 -10 -5 0 -10 5 -10 10 0 6 5 10 10 10 6 0 10 -4 10 -10z m-3660 -10 c0 -5
-2 -10 -4 -10 -3 0 -8 5 -11 10 -3 6 -1 10 4 10 6 0 11 -4 11 -10z m-1080
-170 l0 -160 -120 0 -120 0 0 160 0 160 120 0 120 0 0 -160z m390 0 l0 -160
-92 -1 c-51 0 -105 -2 -120 -4 l-28 -4 -1 117 c0 64 -3 138 -5 165 l-5 47 126
0 125 0 0 -160z m370 1 l0 -158 -42 -6 c-24 -3 -78 -3 -120 0 l-78 6 0 158 0
159 120 0 120 0 0 -159z m2308 -621 c1 -426 4 -781 7 -787 3 -8 25 -13 60 -13
l55 0 3 473 c1 259 0 542 -1 627 -2 85 -1 228 3 318 l7 162 59 0 59 0 2 -352
c2 -194 2 -565 0 -824 -2 -438 -4 -472 -20 -476 -9 -2 -106 -2 -214 0 l-198 4
0 818 c0 449 3 820 7 824 4 4 44 6 88 4 l80 -3 3 -775z m1679 758 c-3 -8 -6
-5 -6 6 -1 11 2 17 5 13 3 -3 4 -12 1 -19z m883 -138 l0 -160 -120 0 -120 0 0
160 0 160 120 0 120 0 0 -160z m378 3 l-3 -158 -122 -3 -123 -3 0 161 0 160
125 0 126 0 -3 -157z m382 -2 l0 -158 -31 -7 c-16 -3 -70 -3 -120 1 l-89 6 0
158 0 159 120 0 120 0 0 -159z m-5070 139 c0 -5 -2 -10 -4 -10 -3 0 -8 5 -11
10 -3 6 -1 10 4 10 6 0 11 -4 11 -10z m3470 0 c0 -5 -5 -10 -11 -10 -5 0 -7 5
-4 10 3 6 8 10 11 10 2 0 4 -4 4 -10z m-3650 -40 c0 -5 -2 -10 -4 -10 -3 0 -8
5 -11 10 -3 6 -1 10 4 10 6 0 11 -4 11 -10z m80 -40 c0 -5 -5 -10 -11 -10 -5
0 -7 5 -4 10 3 6 8 10 11 10 2 0 4 -4 4 -10z m-206 -422 c36 -33 39 -75 6
-108 -20 -20 -33 -20 -705 -20 -672 0 -685 0 -705 20 -34 34 -21 102 23 120
12 5 322 9 689 9 l667 1 25 -22z m5453 12 c29 -11 53 -45 53 -76 0 -8 -11 -26
-25 -39 l-24 -25 -686 0 c-429 0 -693 4 -705 10 -47 25 -41 101 10 127 33 17
1330 19 1377 3z m-1595 -32 c-7 -7 -16 -6 -29 1 -16 11 -15 11 6 5 17 -4 21
-3 16 6 -6 9 -4 11 4 5 9 -5 9 -11 3 -17z m-3606 -23 c-3 -15 0 -25 7 -25 7 0
6 -4 -3 -10 -10 -6 -11 -10 -2 -10 6 0 12 -5 12 -11 0 -8 -4 -9 -13 0 -8 6
-16 8 -19 5 -3 -3 -9 -1 -13 5 -3 6 1 11 10 11 9 0 13 5 10 10 -4 6 -10 8 -15
5 -4 -3 -13 2 -19 9 -14 17 2 31 24 22 8 -3 15 -1 15 4 0 6 2 10 5 10 3 0 3
-11 1 -25z m3552 -1 c21 -22 24 -44 6 -51 -8 -3 -12 -9 -9 -13 3 -5 -4 -6 -15
-3 -11 3 -17 9 -14 14 3 5 10 6 16 3 7 -4 8 -2 4 5 -5 8 -12 9 -19 3 -7 -5
-20 -8 -30 -6 -11 1 -16 0 -13 -3 3 -4 1 -12 -5 -20 -9 -10 -8 -13 2 -14 8 0
5 -4 -6 -9 -19 -8 -19 -9 4 -9 15 -1 21 3 18 12 -3 8 -1 20 4 28 5 8 9 9 9 3
0 -7 9 -14 21 -17 14 -4 18 -10 13 -18 -6 -10 -9 -10 -12 -1 -4 14 -31 -7 -27
-23 1 -5 0 -7 -2 -2 -7 10 -31 9 -38 -3 -3 -6 1 -7 9 -4 9 3 16 2 16 -4 0 -6
-8 -9 -17 -8 -17 3 -52 -24 -46 -36 1 -3 -7 -4 -19 -1 -19 4 -20 3 -8 -6 13
-9 13 -11 -2 -11 -9 0 -19 -6 -21 -12 -3 -7 -6 23 -6 67 0 44 3 75 7 69 4 -6
16 -14 27 -19 17 -7 18 -9 3 -12 -9 -2 -19 -10 -22 -18 -3 -9 0 -12 10 -8 7 3
14 0 14 -6 0 -6 -7 -11 -17 -11 -19 0 -10 -13 11 -16 9 -1 13 6 11 22 -2 20 2
23 20 20 18 -3 23 0 23 21 0 14 5 29 11 33 9 5 8 11 -3 23 -15 14 -14 16 4 14
11 -1 20 -4 20 -8 0 -4 9 -5 20 -2 11 3 20 10 19 17 -5 38 4 44 29 20z m-3524
-6 c-5 -8 -2 -9 10 -5 10 4 15 3 11 -3 -3 -5 6 -12 20 -16 26 -6 32 -18 15
-29 -6 -4 -4 -15 6 -30 9 -14 14 -31 11 -40 -4 -8 -2 -17 3 -20 6 -4 10 -13
10 -21 0 -8 -5 -12 -10 -9 -6 4 -7 11 -4 17 5 7 2 9 -8 6 -8 -4 -21 -2 -29 3
-11 7 -11 9 3 9 9 0 20 4 23 10 3 6 -1 7 -9 4 -9 -3 -16 -1 -16 5 0 6 -5 11
-11 11 -5 0 -7 -4 -4 -10 9 -15 -4 -12 -21 4 -12 13 -11 15 8 14 13 -1 28 -5
35 -10 6 -5 14 -5 18 2 3 5 1 10 -5 10 -6 0 -9 4 -6 9 4 5 -11 7 -33 5 -25 -2
-43 2 -51 11 -10 12 -7 13 22 5 45 -13 51 -13 44 5 -3 8 -1 15 5 15 6 0 7 5 4
10 -10 16 -35 12 -29 -5 4 -8 1 -15 -4 -15 -6 0 -9 9 -7 20 2 11 0 22 -6 25
-12 8 -12 25 2 25 5 0 7 -5 3 -12z m3470 -4 c3 -8 2 -12 -4 -9 -6 3 -10 10
-10 16 0 14 7 11 14 -7z m96 1 c0 -8 -2 -15 -4 -15 -2 0 -6 7 -10 15 -3 8 -1
15 4 15 6 0 10 -7 10 -15z m-180 -35 c0 -5 -5 -10 -11 -10 -5 0 -7 5 -4 10 3
6 8 10 11 10 2 0 4 -4 4 -10z m-3271 -3 c-2 -1 -14 -10 -26 -20 -14 -12 -23
-15 -28 -8 -3 6 4 15 17 20 21 9 47 14 37 8z m3294 -37 c-7 -28 -13 -25 -13 6
0 14 4 23 9 20 5 -3 7 -15 4 -26z m-3298 10 c-3 -5 -2 -10 4 -10 5 0 12 6 14
13 4 9 6 9 6 -1 1 -7 -6 -15 -14 -18 -10 -4 -13 -13 -10 -24 3 -10 0 -20 -9
-23 -10 -4 -13 -1 -10 7 3 8 1 17 -5 21 -13 7 4 45 20 45 6 0 7 -4 4 -10z
m3275 0 c0 -5 -7 -7 -15 -4 -8 4 -15 8 -15 10 0 2 7 4 15 4 8 0 15 -4 15 -10z
m-3260 -84 c0 -2 -7 -6 -15 -10 -8 -3 -15 -1 -15 4 0 6 7 10 15 10 8 0 15 -2
15 -4z m-1974 -178 c246 -534 579 -940 1086 -1325 419 -317 939 -562 1492
-703 491 -125 1070 -156 1581 -84 489 68 977 233 1420 479 388 215 666 425
955 721 297 305 500 599 626 909 l32 80 96 3 c63 2 96 -1 96 -8 0 -35 -148
-338 -239 -489 -391 -647 -1054 -1216 -1811 -1554 -561 -250 -1044 -360 -1650
-374 -357 -8 -627 15 -968 83 -608 122 -1234 400 -1717 765 -491 370 -884 838
-1120 1334 -44 92 -105 233 -105 241 0 2 42 4 94 4 l94 0 38 -82z m1706 16
c71 -68 125 -102 216 -134 l62 -23 0 -123 0 -124 -775 0 -774 0 -41 54 c-22
30 -58 83 -80 118 l-40 63 0 117 0 117 684 -2 684 -2 64 -61z m5206 -43 c3
-119 4 -117 -110 -268 l-69 -93 -780 0 -780 0 3 126 3 126 55 17 c83 26 167
75 242 140 l67 59 683 -1 683 -2 3 -104z m-4918 -581 l0 -70 -669 0 -669 0
-56 64 c-31 35 -56 67 -56 70 0 3 326 6 725 6 l725 0 0 -70z m4623 47 c-10
-12 -36 -44 -58 -70 l-39 -47 -673 0 -673 0 0 70 0 70 731 0 730 0 -18 -23z
m-4633 -332 l0 -65 -523 0 -523 0 -64 65 -64 65 587 0 587 0 0 -65z m4350 58
c0 -5 -29 -34 -64 -65 l-65 -58 -515 0 -516 0 0 65 0 65 580 0 c319 0 580 -3
580 -7z m-1329 -130 c2 -69 -2 -237 -6 -241 -2 -2 -642 -5 -1423 -7 l-1419 -3
-6 135 c-3 75 -3 142 0 149 4 12 229 14 1429 14 l1424 0 1 -47z m-3021 -177
c0 -31 -3 -34 -37 -41 -21 -3 -62 -20 -90 -36 l-53 -29 -245 0 -246 0 -79 67
c-44 36 -80 68 -80 70 0 1 187 3 415 3 l415 0 0 -34z m3995 8 c-16 -14 -58
-45 -91 -70 l-62 -44 -252 0 -252 0 -74 35 c-71 34 -74 37 -74 70 l0 35 418 0
417 -1 -30 -25z m-790 -248 c38 -16 75 -68 75 -105 0 -67 -108 -144 -226 -161
-32 -4 -691 -8 -1462 -9 -1518 -1 -1459 -3 -1583 52 -71 31 -123 89 -115 128
8 43 36 80 71 95 47 21 3191 20 3240 0z m-3471 -63 c-3 -27 -8 -49 -9 -51 -4
-5 -145 83 -145 90 0 5 36 8 81 8 l80 0 -7 -47z m3851 31 c-26 -20 -136 -76
-141 -72 -1 2 -6 23 -10 46 l-7 42 89 0 c82 -1 88 -2 69 -16z m-1125 -424
c-21 -12 -301 -66 -440 -85 -285 -38 -575 -37 -864 6 -149 21 -344 61 -386 78
-17 7 247 10 840 10 492 0 858 -4 850 -9z"/>
<path d="M3697 7404 c-4 -4 -7 -24 -7 -44 0 -34 -2 -36 -47 -48 -68 -19 -110
-48 -137 -95 -34 -60 -40 -107 -20 -156 22 -56 59 -84 138 -107 l66 -19 0 -73
0 -72 -37 15 c-40 17 -54 26 -96 64 l-27 25 -40 -39 c-22 -22 -40 -44 -40 -50
0 -16 80 -90 117 -109 18 -9 53 -19 77 -22 l45 -7 3 -46 c3 -45 4 -46 41 -49
l37 -3 0 49 0 49 39 7 c82 13 171 115 171 195 0 46 -36 118 -71 144 -15 11
-51 28 -80 37 l-54 19 -3 65 c-2 37 1 66 7 66 5 0 33 -16 62 -35 29 -20 55
-32 58 -28 3 4 19 23 35 41 l30 32 -30 31 c-30 32 -116 79 -146 79 -13 0 -18
11 -20 43 -3 39 -5 42 -33 45 -17 2 -34 0 -38 -4z m-5 -265 c1 -33 1 -62 -1
-64 -2 -2 -21 5 -42 16 -53 26 -50 67 6 97 31 18 33 16 37 -49z m122 -230 c44
-35 31 -92 -26 -112 -16 -6 -18 1 -18 63 0 39 4 70 9 70 4 0 20 -9 35 -21z"/>
<path d="M6936 7394 c-3 -9 -6 -29 -6 -45 0 -24 -4 -29 -23 -29 -39 0 -121
-48 -145 -84 -79 -117 -31 -237 110 -276 l63 -17 3 -59 c1 -32 -2 -65 -6 -72
-12 -17 -45 -4 -105 42 -26 20 -51 36 -55 36 -5 0 -23 -18 -41 -40 -37 -46
-34 -58 24 -109 39 -34 86 -57 140 -67 34 -6 35 -8 35 -50 0 -39 3 -46 27 -55
42 -16 53 -5 53 49 l0 48 48 13 c71 18 116 53 146 113 32 64 33 110 4 168 -26
50 -71 85 -132 101 -23 5 -47 12 -53 14 -9 3 -13 25 -13 65 0 72 11 76 83 30
26 -16 50 -30 52 -30 9 0 64 65 65 76 1 32 -117 103 -172 104 -26 0 -28 3 -28
45 0 44 0 45 -34 45 -22 0 -36 -6 -40 -16z m4 -254 c0 -33 -3 -60 -7 -60 -19
0 -73 41 -73 55 0 20 44 65 65 65 12 0 15 -13 15 -60z m121 -221 c40 -28 39
-69 -2 -103 -17 -14 -35 -24 -40 -20 -17 10 -9 144 8 144 3 0 18 -9 34 -21z"/>
<path d="M7735 6928 c-2 -7 -5 -24 -7 -36 -2 -18 -13 -28 -43 -38 -88 -30
-135 -126 -98 -201 25 -51 70 -79 161 -99 88 -19 102 -27 102 -59 0 -70 -126
-70 -210 0 -23 19 -43 35 -45 35 -2 0 -18 -19 -36 -42 l-33 -41 43 -38 c35
-32 87 -57 148 -74 6 -2 14 -22 18 -45 7 -39 9 -41 38 -38 29 3 32 7 35 39 3
33 7 38 47 53 82 32 138 121 120 193 -17 71 -66 106 -178 129 -81 17 -99 28
-95 58 8 54 107 56 179 4 l42 -30 33 38 32 39 -21 24 c-24 26 -112 71 -139 71
-12 0 -18 10 -20 33 -3 28 -7 32 -36 35 -20 2 -34 -2 -37 -10z"/>
<path d="M2836 6905 c-3 -9 -6 -27 -6 -39 0 -17 -13 -28 -60 -49 -78 -36 -110
-81 -110 -154 0 -29 5 -63 11 -77 18 -39 77 -74 163 -95 44 -11 87 -28 97 -38
34 -36 -10 -83 -79 -83 -33 0 -122 40 -141 63 -19 24 -24 22 -60 -23 -30 -38
-31 -41 -16 -64 21 -31 124 -86 163 -86 29 0 31 -2 34 -42 3 -38 6 -43 28 -44
35 -2 50 13 50 52 0 26 4 34 18 34 37 0 112 59 132 103 24 53 25 81 1 133 -25
55 -68 83 -176 114 -74 22 -91 30 -93 47 -5 35 31 63 82 63 34 0 56 -8 96 -35
l53 -35 32 37 33 38 -20 27 c-21 31 -88 72 -130 82 -22 5 -27 12 -30 44 -3 33
-6 37 -34 40 -22 2 -33 -2 -38 -13z"/>
<path d="M3405 5220 c3 -5 8 -10 11 -10 2 0 4 5 4 10 0 6 -5 10 -11 10 -5 0
-7 -4 -4 -10z"/>
<path d="M7265 5050 c3 -5 8 -10 11 -10 2 0 4 5 4 10 0 6 -5 10 -11 10 -5 0
-7 -4 -4 -10z"/>
<path d="M7210 5040 c0 -5 5 -10 11 -10 5 0 7 5 4 10 -3 6 -8 10 -11 10 -2 0
-4 -4 -4 -10z"/>
<path d="M7280 5009 c0 -5 5 -7 10 -4 6 3 10 8 10 11 0 2 -4 4 -10 4 -5 0 -10
-5 -10 -11z"/>
<path d="M3316 4963 c-6 -14 -5 -15 5 -6 7 7 10 15 7 18 -3 3 -9 -2 -12 -12z"/>
<path d="M3350 4961 c0 -6 4 -13 10 -16 6 -3 7 1 4 9 -7 18 -14 21 -14 7z"/>
<path d="M7320 4940 c0 -5 5 -10 10 -10 6 0 10 5 10 10 0 6 -4 10 -10 10 -5 0
-10 -4 -10 -10z"/>
<path d="M7287 4913 c-4 -3 -7 -11 -7 -17 0 -6 5 -5 12 2 6 6 9 14 7 17 -3 3
-9 2 -12 -2z"/>
<path d="M3306 4893 c-6 -14 -5 -15 5 -6 7 7 10 15 7 18 -3 3 -9 -2 -12 -12z"/>
<path d="M7225 4900 c3 -5 8 -10 11 -10 2 0 4 5 4 10 0 6 -5 10 -11 10 -5 0
-7 -4 -4 -10z"/>
<path d="M3350 4875 c0 -5 5 -17 10 -25 5 -8 10 -10 10 -5 0 6 -5 17 -10 25
-5 8 -10 11 -10 5z"/>
<path d="M7260 4870 c0 -5 5 -10 11 -10 5 0 7 5 4 10 -3 6 -8 10 -11 10 -2 0
-4 -4 -4 -10z"/>
<path d="M7360 4850 c0 -5 5 -10 10 -10 6 0 10 5 10 10 0 6 -4 10 -10 10 -5 0
-10 -4 -10 -10z"/>
<path d="M3335 4830 c-3 -5 -1 -10 4 -10 6 0 11 5 11 10 0 6 -2 10 -4 10 -3 0
-8 -4 -11 -10z"/>
<path d="M7390 4829 c0 -5 5 -7 10 -4 6 3 10 8 10 11 0 2 -4 4 -10 4 -5 0 -10
-5 -10 -11z"/>
<path d="M3361 4804 c0 -11 3 -14 6 -6 3 7 2 16 -1 19 -3 4 -6 -2 -5 -13z"/>
<path d="M3315 4800 c-3 -5 -1 -10 4 -10 6 0 11 5 11 10 0 6 -2 10 -4 10 -3 0
-8 -4 -11 -10z"/>
<path d="M7322 4790 c0 -14 2 -19 5 -12 2 6 2 18 0 25 -3 6 -5 1 -5 -13z"/>
<path d="M7280 4780 c0 -5 5 -10 10 -10 6 0 10 5 10 10 0 6 -4 10 -10 10 -5 0
-10 -4 -10 -10z"/>
<path d="M7351 4774 c0 -11 3 -14 6 -6 3 7 2 16 -1 19 -3 4 -6 -2 -5 -13z"/>
<path d="M3335 4761 c-3 -11 -12 -22 -20 -25 -8 -3 -15 -10 -15 -16 0 -11 24
10 49 43 8 10 9 17 3 17 -6 0 -13 -9 -17 -19z"/>
<path d="M7220 4770 c0 -5 5 -10 10 -10 6 0 10 5 10 10 0 6 -4 10 -10 10 -5 0
-10 -4 -10 -10z"/>
<path d="M7320 4750 c0 -5 5 -10 11 -10 5 0 7 5 4 10 -3 6 -8 10 -11 10 -2 0
-4 -4 -4 -10z"/>
<path d="M7225 4740 c-3 -5 1 -10 10 -10 9 0 13 5 10 10 -3 6 -8 10 -10 10 -2
0 -7 -4 -10 -10z"/>
<path d="M3338 4719 c-10 -10 -14 -19 -10 -19 5 0 17 9 27 20 10 11 14 20 9
19 -5 0 -17 -9 -26 -20z"/>
<path d="M7260 4720 c0 -5 5 -10 10 -10 6 0 10 5 10 10 0 6 -4 10 -10 10 -5 0
-10 -4 -10 -10z"/>
<path d="M7297 4723 c-4 -3 -7 -11 -7 -17 0 -6 5 -5 12 2 6 6 9 14 7 17 -3 3
-9 2 -12 -2z"/>
<path d="M3352 4689 c-14 -22 -7 -25 14 -5 8 8 11 17 6 20 -4 2 -13 -4 -20
-15z"/>
<path d="M3392 4690 c0 -14 2 -19 5 -12 2 6 2 18 0 25 -3 6 -5 1 -5 -13z"/>
<path d="M7225 4700 c3 -5 8 -10 11 -10 2 0 4 5 4 10 0 6 -5 10 -11 10 -5 0
-7 -4 -4 -10z"/>
<path d="M7320 4696 c0 -13 -5 -17 -20 -13 -11 3 -20 1 -20 -4 0 -11 30 -12
47 -1 8 5 9 13 3 22 -8 12 -10 12 -10 -4z"/>
<path d="M7360 4684 c0 -8 5 -12 10 -9 6 3 10 10 10 16 0 5 -4 9 -10 9 -5 0
-10 -7 -10 -16z"/>
<path d="M7220 4670 c0 -5 5 -10 10 -10 6 0 10 5 10 10 0 6 -4 10 -10 10 -5 0
-10 -4 -10 -10z"/>
<path d="M7395 4670 c-3 -5 -1 -10 4 -10 6 0 11 5 11 10 0 6 -2 10 -4 10 -3 0
-8 -4 -11 -10z"/>
<path d="M7332 4658 c-6 -6 -12 -21 -11 -32 0 -15 2 -17 6 -6 3 8 10 18 16 21
5 4 8 12 6 18 -3 9 -8 8 -17 -1z"/>
<path d="M7277 4645 c3 -8 9 -12 14 -9 12 7 11 11 -5 17 -10 4 -13 1 -9 -8z"/>
<path d="M7370 4644 c0 -8 5 -12 10 -9 6 4 8 11 5 16 -9 14 -15 11 -15 -7z"/>
<path d="M3391 4634 c0 -11 3 -14 6 -6 3 7 2 16 -1 19 -3 4 -6 -2 -5 -13z"/>
<path d="M3300 4620 c0 -5 5 -10 10 -10 6 0 10 5 10 10 0 6 -4 10 -10 10 -5 0
-10 -4 -10 -10z"/>
<path d="M7250 4620 c0 -5 5 -10 10 -10 6 0 10 5 10 10 0 6 -4 10 -10 10 -5 0
-10 -4 -10 -10z"/>
<path d="M3360 4610 c0 -5 5 -10 11 -10 5 0 7 5 4 10 -3 6 -8 10 -11 10 -2 0
-4 -4 -4 -10z"/>
<path d="M7280 4610 c0 -5 5 -10 10 -10 6 0 10 5 10 10 0 6 -4 10 -10 10 -5 0
-10 -4 -10 -10z"/>
<path d="M7220 4600 c0 -5 5 -10 10 -10 6 0 10 5 10 10 0 6 -4 10 -10 10 -5 0
-10 -4 -10 -10z"/>
<path d="M3305 4590 c-3 -5 -1 -10 4 -10 6 0 11 5 11 10 0 6 -2 10 -4 10 -3 0
-8 -4 -11 -10z"/>
<path d="M3378 4575 c-9 -12 -14 -25 -11 -29 3 -3 12 6 20 21 17 33 13 38 -9
8z"/>
<path d="M7311 4584 c-7 -8 -10 -18 -6 -22 4 -4 10 -1 12 6 7 18 23 15 23 -5
0 -9 3 -14 6 -10 7 7 -5 47 -14 47 -4 -1 -13 -8 -21 -16z"/>
<path d="M7365 4591 c-3 -5 -1 -12 5 -16 5 -3 10 1 10 9 0 18 -6 21 -15 7z"/>
<path d="M7270 4580 c0 -5 5 -10 10 -10 6 0 10 5 10 10 0 6 -4 10 -10 10 -5 0
-10 -4 -10 -10z"/>
<path d="M7263 4545 c0 -7 6 -12 13 -11 23 3 26 13 6 18 -11 3 -19 0 -19 -7z"/>
<path d="M3340 4531 c0 -5 6 -11 13 -14 9 -3 9 -9 -1 -26 -7 -12 -8 -21 -2
-21 5 0 14 9 20 20 8 16 8 24 -4 35 -17 17 -26 19 -26 6z"/>
<path d="M3320 4500 c0 -5 5 -10 10 -10 6 0 10 5 10 10 0 6 -4 10 -10 10 -5 0
-10 -4 -10 -10z"/>
<path d="M3300 4477 c0 -8 7 -17 15 -21 8 -3 15 -3 15 0 0 3 -7 12 -15 20 -13
13 -15 13 -15 1z"/>
<path d="M7260 4426 c0 -9 5 -16 10 -16 6 0 10 4 10 9 0 6 -4 13 -10 16 -5 3
-10 -1 -10 -9z"/>
<path d="M4780 7133 c-135 -70 -103 -271 48 -299 80 -15 170 55 179 139 5 50
-27 120 -69 150 -38 28 -114 33 -158 10z"/>
<path d="M5690 7133 c-103 -54 -115 -200 -22 -271 47 -35 135 -39 179 -6 97
72 98 195 1 267 -37 28 -114 33 -158 10z"/>
<path d="M1951 5032 c-60 -3 -63 -4 -57 -25 3 -12 6 -41 6 -64 l0 -41 73 -4
c88 -4 87 -5 114 34 22 32 21 40 -9 82 -16 20 -32 22 -127 18z"/>
<path d="M1550 4965 l0 -65 63 0 c35 0 68 -5 74 -11 6 -6 4 9 -5 33 -14 40
-14 47 1 76 l15 32 -74 0 -74 0 0 -65z"/>
<path d="M8636 5020 c-30 -35 -35 -54 -20 -82 21 -41 44 -49 123 -42 l69 7 7
59 c4 33 6 61 4 63 -2 1 -41 5 -87 7 -65 2 -86 0 -96 -12z"/>
<path d="M9026 5015 c16 -22 18 -78 5 -103 -8 -15 -2 -17 57 -16 l67 1 0 64 0
64 -71 5 c-70 5 -71 4 -58 -15z"/>
<path d="M7086 3336 c3 -8 12 -12 21 -9 12 5 12 7 1 14 -20 13 -28 11 -22 -5z"/>
<path d="M6985 3219 c-4 -6 -5 -12 -2 -15 2 -3 7 2 10 11 7 17 1 20 -8 4z"/>
<path d="M2697 2969 c-27 -16 -38 -53 -26 -89 29 -81 149 -59 149 28 0 57 -70
92 -123 61z"/>
<path d="M2987 2973 c-24 -6 -50 -59 -41 -86 12 -39 35 -57 75 -57 42 0 79 35
79 75 0 12 -9 34 -21 49 -20 25 -46 31 -92 19z"/>
<path d="M2410 2930 c-23 -23 -24 -33 -9 -63 16 -29 28 -37 60 -37 30 0 69 37
69 67 0 49 -81 72 -120 33z"/>
<path d="M7625 2950 c-42 -46 -10 -120 52 -120 42 0 73 30 73 70 0 62 -84 95
-125 50z"/>
<path d="M7900 2950 c-44 -44 -10 -120 55 -120 36 0 75 36 75 70 0 10 -9 29
-21 44 -26 33 -79 36 -109 6z"/>
<path d="M8186 2924 c-36 -35 -9 -94 43 -94 49 0 82 65 49 98 -17 17 -74 15
-92 -4z"/>
<path d="M2189 8463 l-34 -38 38 34 c20 19 37 36 37 38 0 8 -8 0 -41 -34z"/>
<path d="M8485 8410 c3 -5 8 -10 11 -10 2 0 4 5 4 10 0 6 -5 10 -11 10 -5 0
-7 -4 -4 -10z"/>
<path d="M1995 8269 c-4 -6 -17 -14 -29 -19 -14 -6 -16 -9 -5 -9 9 -1 24 8 34
19 10 11 15 20 12 20 -3 0 -9 -5 -12 -11z"/>
<path d="M1650 7865 c0 -8 2 -15 4 -15 2 0 6 7 10 15 3 8 1 15 -4 15 -6 0 -10
-7 -10 -15z"/>
<path d="M9451 2953 c-10 -26 -10 -27 4 -9 8 11 15 23 15 28 0 15 -7 8 -19
-19z"/>
<path d="M2040 1660 c-12 -8 -10 -10 8 -10 13 0 20 4 17 10 -7 12 -6 12 -25 0z"/>
<path d="M2910 990 c0 -5 5 -10 11 -10 5 0 7 5 4 10 -3 6 -8 10 -11 10 -2 0
-4 -4 -4 -10z"/>
<path d="M4668 383 c7 -3 16 -2 19 1 4 3 -2 6 -13 5 -11 0 -14 -3 -6 -6z"/>
<path d="M5068 343 c12 -2 30 -2 40 0 9 3 -1 5 -23 4 -22 0 -30 -2 -17 -4z"/>
</g>
</svg>
